<svg width="35" height="22" viewBox="0 0 35 22" fill="none" xmlns="http://www.w3.org/2000/svg">
<g clip-path="url(#clip0_842_2173)">
<path d="M0.656982 2.76611C0.656982 1.2503 1.92817 0.0214844 3.49625 0.0214844H31.8889C33.457 0.0214844 34.7282 1.2503 34.7282 2.76611V19.2339C34.7282 20.7497 33.457 21.9785 31.8889 21.9785H3.49625C1.92817 21.9785 0.656982 20.7497 0.656982 19.2339V2.76611Z" fill="#FCE0CF"/>
<path d="M20.9437 10.9855C20.9463 10.3956 20.7175 9.80483 20.257 9.35965C19.7955 8.91355 19.1829 8.69256 18.5714 8.69611C18.5685 8.69611 18.5656 8.69592 18.5626 8.69592C17.2347 8.69592 16.1814 9.71386 16.1814 10.9979C16.1814 12.2692 17.2477 13.2996 18.5626 13.2996C19.8908 13.2996 20.944 12.2815 20.944 10.9979C20.944 10.9936 20.9437 10.9897 20.9437 10.9855Z" fill="#F26E21"/>
<path d="M15.7391 11.9722C15.3832 12.3166 15.0547 12.4512 14.7008 12.4585C13.8389 12.451 13.2051 11.8339 13.2051 10.9542C13.2051 10.5113 13.3786 10.1483 13.6534 9.83827C13.9111 9.60178 14.243 9.44898 14.6248 9.44898C15.0369 9.44898 15.3576 9.58176 15.7237 9.93591V8.91779C15.3576 8.7408 15.0368 8.65222 14.6248 8.65222C14.0427 8.69244 13.4938 8.91981 13.0728 9.27683C12.9514 9.38237 12.8352 9.49887 12.7366 9.63221C12.429 10.0175 12.2432 10.4893 12.2432 10.9986C12.2432 12.2822 13.2968 13.256 14.6247 13.256C14.6312 13.256 14.6376 13.2555 14.6439 13.2554C14.6528 13.2555 14.6616 13.256 14.6705 13.256C15.0367 13.256 15.3576 13.1677 15.7697 12.9906L15.7391 11.9722C15.7236 11.9872 15.7544 12.001 15.7391 12.0152V11.9722Z" fill="#2B2B2B"/>
<path d="M23.9501 9.28659L22.913 11.7514L21.7223 8.82947H20.7607L22.6382 13.3006H23.1419L25.1111 8.82947H24.1496L23.9501 9.28659Z" fill="#2B2B2B"/>
<path d="M25.478 10.7773V13.168H27.951H27.9966V12.4594H27.2182H26.3939V11.6628V11.2645H27.951V10.5117H26.3939V9.58215H27.9966V8.82947H25.478V10.7773Z" fill="#2B2B2B"/>
<path d="M4.77882 8.83044H3.49634V13.1689H4.77876C5.46556 13.1689 5.96922 12.9917 6.38137 12.6818C6.88503 12.2834 7.20573 11.6638 7.20573 10.9999C7.20579 9.71578 6.24394 8.83044 4.77882 8.83044ZM5.83199 12.1065C5.5572 12.3277 5.19084 12.4604 4.64127 12.4604H4.36648V9.58306H4.59542C5.14499 9.58306 5.51135 9.67159 5.7862 9.93709C6.10671 10.2025 6.28999 10.6012 6.28999 10.9997C6.33577 11.3981 6.15262 11.8406 5.83199 12.1065Z" fill="#2B2B2B"/>
<path d="M8.48825 8.82935H7.61816V13.1677H8.48825V8.82935Z" fill="#2B2B2B"/>
<path d="M10.6864 10.5122C10.137 10.3352 9.99942 10.2023 9.99942 9.98105C9.99942 9.71543 10.2742 9.49412 10.6406 9.49412C10.9154 9.49412 11.1443 9.58271 11.3733 9.84833L11.8314 9.27288C11.4649 8.96287 11.0071 8.78601 10.5033 8.78601C9.72464 8.78601 9.08349 9.31726 9.08349 10.0253C9.08349 10.6452 9.35853 10.9108 10.1827 11.2207C10.5491 11.3533 10.6865 11.3977 10.7782 11.4862C10.9611 11.5746 11.0528 11.7519 11.0528 11.9287C11.0528 12.2829 10.7782 12.5486 10.3658 12.5486C9.95332 12.5486 9.58728 12.3273 9.40406 11.9731L8.85449 12.5044C9.26683 13.0798 9.77055 13.3454 10.4117 13.3454C11.3275 13.3454 11.9683 12.7699 11.9683 11.9287C11.9685 11.1763 11.6939 10.8665 10.6864 10.5122Z" fill="#2B2B2B"/>
<path d="M30.47 11.3527C31.1567 11.2201 31.5232 10.7773 31.5232 10.1134C31.5232 9.31671 30.9277 8.82947 29.9204 8.82947H28.5923V13.168H29.4624V11.4413H29.5999L30.836 13.168H31.8895L30.47 11.3527ZM29.737 10.8215H29.4624V9.49356H29.737C30.2866 9.49356 30.6073 9.71481 30.6073 10.1578C30.6073 10.6003 30.2867 10.8215 29.737 10.8215Z" fill="#2B2B2B"/>
</g>
<defs>
<clipPath id="clip0_842_2173">
<rect width="34.0712" height="21.957" fill="white" transform="translate(0.656982 0.0214844)"/>
</clipPath>
</defs>
</svg>
