<svg width="22" height="22" viewBox="0 0 22 22" fill="none" xmlns="http://www.w3.org/2000/svg">
<g opacity="0.5">
<path d="M18.8159 2.50427H3.18392C2.80799 2.50427 2.50427 2.80799 2.50427 3.18392V18.8159C2.50427 19.1918 2.80799 19.4955 3.18392 19.4955H18.8159C19.1918 19.4955 19.4955 19.1918 19.4955 18.8159V3.18392C19.4955 2.80799 19.1918 2.50427 18.8159 2.50427ZM16.8534 7.46359H15.4962C14.4321 7.46359 14.2261 7.96908 14.2261 8.71245V10.35H16.7663L16.435 12.9135H14.2261V19.4955H11.5776V12.9157H9.36236V10.35H11.5776V8.4597C11.5776 6.26571 12.9178 5.06995 14.876 5.06995C15.8148 5.06995 16.6197 5.14004 16.8555 5.1719V7.46359H16.8534Z" fill="white"/>
</g>
</svg>
