<svg width="36" height="22" viewBox="0 0 36 22" fill="none" xmlns="http://www.w3.org/2000/svg">
<g clip-path="url(#clip0_842_2158)">
<path d="M0.95752 2.76611C0.95752 1.2503 2.2287 0.0214844 3.79679 0.0214844H32.1895C33.7576 0.0214844 35.0288 1.2503 35.0288 2.76611V19.2339C35.0288 20.7497 33.7576 21.9785 32.1895 21.9785H3.79679C2.2287 21.9785 0.95752 20.7497 0.95752 19.2339V2.76611Z" fill="#CCDEFF"/>
<path d="M8.60292 7.92425C8.24704 7.68775 7.78265 7.56921 7.20975 7.56921H4.99178C4.81615 7.56921 4.71912 7.65412 4.70069 7.82377L3.7997 13.291C3.79034 13.3447 3.80424 13.3938 3.84127 13.4384C3.87809 13.4831 3.9244 13.5054 3.97987 13.5054H5.03339C5.21817 13.5054 5.31973 13.4207 5.33838 13.2508L5.58786 11.7769C5.59697 11.7054 5.62947 11.6474 5.68493 11.6026C5.74035 11.558 5.80967 11.5288 5.89285 11.5154C5.97602 11.5022 6.05445 11.4954 6.12852 11.4954C6.20237 11.4954 6.29012 11.5 6.39194 11.5089C6.49351 11.5178 6.55825 11.5222 6.586 11.5222C7.38072 11.5222 8.00451 11.3057 8.45742 10.8723C8.91011 10.4391 9.13672 9.83838 9.13672 9.06991C9.13672 8.54285 8.95863 8.16099 8.60292 7.92412V7.92425ZM7.45936 9.56588C7.41301 9.8786 7.29301 10.084 7.09895 10.1823C6.90485 10.2807 6.62761 10.3297 6.26724 10.3297L5.80976 10.343L6.04547 8.90918C6.06386 8.811 6.1239 8.76185 6.22563 8.76185H6.4891C6.85858 8.76185 7.12675 8.81334 7.2931 8.9159C7.45936 9.01871 7.51483 9.23542 7.45936 9.56588Z" fill="#003087"/>
<path d="M32.0091 7.56921H30.9834C30.8815 7.56921 30.8215 7.61837 30.8031 7.71671L29.9021 13.2912L29.8882 13.318C29.8882 13.3629 29.9067 13.4051 29.9437 13.4453C29.9805 13.4855 30.0269 13.5056 30.0823 13.5056H30.9973C31.1726 13.5056 31.2697 13.4209 31.2885 13.251L32.1895 7.77032V7.75701C32.1894 7.63188 32.1292 7.56938 32.0091 7.56938V7.56921Z" fill="#009CDE"/>
<path d="M19.6161 9.728C19.6161 9.68343 19.5976 9.64092 19.5608 9.60082C19.5238 9.56064 19.4822 9.54041 19.4361 9.54041H18.3687C18.2668 9.54041 18.1836 9.5853 18.1191 9.67438L16.6497 11.7649L16.0398 9.75487C15.9933 9.61204 15.8918 9.54041 15.7348 9.54041H14.695C14.6487 9.54041 14.6071 9.56056 14.5704 9.60082C14.5333 9.64092 14.5149 9.68352 14.5149 9.728C14.5149 9.74598 14.605 10.0094 14.7852 10.5186C14.9653 11.028 15.1594 11.5774 15.3674 12.1671C15.5753 12.7566 15.6838 13.0694 15.6931 13.1048C14.9353 14.1056 14.5565 14.6415 14.5565 14.7129C14.5565 14.8291 14.6165 14.8871 14.7367 14.8871H15.8041C15.9057 14.8871 15.9888 14.8426 16.0537 14.7532L19.5886 9.82175C19.6069 9.80406 19.6161 9.77293 19.6161 9.72796V9.728Z" fill="#003087"/>
<path d="M29.5562 9.53838H28.5027C28.3731 9.53838 28.2949 9.68583 28.2671 9.98069C28.0265 9.62345 27.5879 9.44458 26.9501 9.44458C26.2847 9.44458 25.7186 9.68583 25.252 10.1682C24.7853 10.6507 24.552 11.2181 24.552 11.8702C24.552 12.3974 24.7114 12.8172 25.0302 13.1297C25.349 13.4426 25.7764 13.5988 26.3126 13.5988C26.5805 13.5988 26.8531 13.5451 27.1304 13.438C27.4076 13.3308 27.6246 13.1879 27.782 13.0092C27.782 13.0181 27.7725 13.0582 27.7543 13.1296C27.7356 13.2012 27.7265 13.255 27.7265 13.2904C27.7265 13.4335 27.7864 13.5048 27.9067 13.5048H28.8633C29.0387 13.5048 29.1404 13.4201 29.1681 13.2502L29.7365 9.75276C29.7456 9.6991 29.7318 9.65007 29.6949 9.60534C29.6577 9.56078 29.6116 9.53838 29.5562 9.53838ZM27.7472 12.1784C27.5116 12.4017 27.2273 12.5133 26.8947 12.5133C26.6266 12.5133 26.4096 12.442 26.2432 12.2989C26.0767 12.1563 25.9935 11.9598 25.9935 11.7093C25.9935 11.379 26.1091 11.0996 26.3402 10.8718C26.5709 10.644 26.8577 10.5302 27.1996 10.5302C27.4582 10.5302 27.6731 10.6038 27.8442 10.7512C28.015 10.8986 28.1008 11.1019 28.1008 11.361C28.1007 11.6826 27.9829 11.9551 27.7472 12.1784Z" fill="#009CDE"/>
<path d="M13.8086 9.53838H12.755C12.6254 9.53838 12.547 9.68583 12.5193 9.98069C12.2698 9.62345 11.8308 9.44458 11.2024 9.44458C10.537 9.44458 9.97084 9.68583 9.50421 10.1682C9.03745 10.6507 8.8042 11.2181 8.8042 11.8702C8.8042 12.3974 8.96364 12.8172 9.28248 13.1297C9.60133 13.4426 10.0286 13.5988 10.5647 13.5988C10.8234 13.5988 11.0915 13.5451 11.3687 13.438C11.6459 13.3308 11.8678 13.1879 12.0341 13.0092C11.997 13.1163 11.9786 13.2101 11.9786 13.2904C11.9786 13.4335 12.0387 13.5048 12.1588 13.5048H13.1153C13.2908 13.5048 13.3926 13.4201 13.4203 13.2502L13.9886 9.75276C13.9978 9.6991 13.9839 9.65007 13.9471 9.60534C13.9101 9.56078 13.8639 9.53838 13.8086 9.53838ZM11.9995 12.185C11.7638 12.4041 11.4749 12.5133 11.1332 12.5133C10.865 12.5133 10.6501 12.442 10.4885 12.2989C10.3267 12.1563 10.2459 11.9598 10.2459 11.7093C10.2459 11.379 10.3614 11.0996 10.5925 10.8718C10.8234 10.644 11.1099 10.5301 11.452 10.5301C11.7106 10.5301 11.9255 10.6038 12.0966 10.7512C12.2674 10.8986 12.353 11.1019 12.353 11.361C12.353 11.6916 12.2352 11.9663 11.9995 12.185Z" fill="#003087"/>
<path d="M24.3506 7.92425C23.9947 7.68775 23.5305 7.56921 22.9574 7.56921H20.7533C20.5684 7.56921 20.4667 7.65412 20.4483 7.82377L19.5473 13.291C19.5379 13.3447 19.5518 13.3938 19.5889 13.4384C19.6255 13.4831 19.672 13.5054 19.7274 13.5054H20.8641C20.975 13.5054 21.0489 13.4474 21.0859 13.3312L21.3355 11.7769C21.3447 11.7054 21.377 11.6474 21.4325 11.6026C21.488 11.558 21.5572 11.5288 21.6405 11.5154C21.7236 11.5022 21.802 11.4954 21.8761 11.4954C21.95 11.4954 22.0377 11.5 22.1394 11.5089C22.2411 11.5178 22.306 11.5222 22.3335 11.5222C23.1284 11.5222 23.7521 11.3057 24.205 10.8723C24.6578 10.4391 24.8842 9.83838 24.8842 9.06991C24.8843 8.54285 24.7063 8.16095 24.3506 7.92412V7.92425ZM22.9297 10.1286C22.7264 10.2626 22.4213 10.3296 22.0148 10.3296L21.5712 10.343L21.8068 8.9091C21.8251 8.81096 21.8852 8.76173 21.987 8.76173H22.2364C22.4398 8.76173 22.6015 8.7707 22.7218 8.78852C22.8417 8.80646 22.9574 8.8622 23.0683 8.95596C23.1793 9.0498 23.2347 9.18611 23.2347 9.36469C23.2347 9.74003 23.1329 9.99451 22.9297 10.1286Z" fill="#009CDE"/>
</g>
<defs>
<clipPath id="clip0_842_2158">
<rect width="34.0712" height="21.957" fill="white" transform="translate(0.95752 0.0214844)"/>
</clipPath>
</defs>
</svg>
