<svg width="34" height="22" viewBox="0 0 34 22" fill="none" xmlns="http://www.w3.org/2000/svg">
<g clip-path="url(#clip0_842_2150)">
<path d="M0.0288086 2.76611C0.0288086 1.2503 1.27174 0.0214844 2.80498 0.0214844H30.5667C32.1 0.0214844 33.3429 1.2503 33.3429 2.76611V19.2339C33.3429 20.7497 32.1 21.9785 30.5667 21.9785H2.80498C1.27174 21.9785 0.0288086 20.7497 0.0288086 19.2339V2.76611Z" fill="#D8E3F3"/>
<path d="M28.6999 6.90417H26.9547C26.427 6.90417 26.0211 7.06468 25.7776 7.58632L22.4495 15.0899H24.8035C24.8035 15.0899 25.2094 14.0868 25.2906 13.846C25.5341 13.846 27.8476 13.846 28.1723 13.846C28.2535 14.1269 28.4564 15.0498 28.4564 15.0498H30.5669L28.6999 6.90417ZM25.94 12.1607C26.1429 11.6792 26.8329 9.87351 26.8329 9.87351C26.8329 9.91363 27.0358 9.39199 27.117 9.11111L27.2794 9.83338C27.2794 9.83338 27.7258 11.7996 27.807 12.2008H25.94V12.1607Z" fill="#3362AB"/>
<path d="M22.6116 12.4034C22.6116 14.0887 21.0693 15.2123 18.6746 15.2123C17.6599 15.2123 16.6858 15.0116 16.1582 14.7709L16.4829 12.9251L16.767 13.0454C17.4976 13.3664 17.9846 13.4868 18.8776 13.4868C19.527 13.4868 20.2169 13.2461 20.2169 12.6843C20.2169 12.3232 19.9328 12.0824 19.0399 11.6812C18.1876 11.2799 17.0511 10.6379 17.0511 9.47422C17.0511 7.86917 18.634 6.78577 20.8663 6.78577C21.7187 6.78577 22.4492 6.94627 22.8957 7.1469L22.571 8.91245L22.4087 8.75195C22.0028 8.59144 21.4751 8.43094 20.704 8.43094C19.8517 8.47106 19.4458 8.8322 19.4458 9.15321C19.4458 9.51434 19.9328 9.79523 20.704 10.1564C22.0028 10.7583 22.6116 11.4404 22.6116 12.4034Z" fill="#3362AB"/>
<path d="M2.80493 6.9857L2.84552 6.8252H6.33603C6.82308 6.8252 7.18836 6.9857 7.31013 7.50734L8.08129 11.1187C7.31013 9.19264 5.52428 7.62772 2.80493 6.9857Z" fill="#F9B50B"/>
<path d="M12.9925 6.90585L9.46137 15.0515H7.06672L5.03735 8.23001C6.4985 9.15291 7.71612 10.5975 8.16258 11.6006L8.4061 12.4433L10.5978 6.86572H12.9925V6.90585Z" fill="#3362AB"/>
<path d="M13.9259 6.86572H16.1582L14.7377 15.0515H12.5054L13.9259 6.86572Z" fill="#3362AB"/>
</g>
<defs>
<clipPath id="clip0_842_2150">
<rect width="33.3141" height="21.957" fill="white" transform="translate(0.0288086 0.0214844)"/>
</clipPath>
</defs>
</svg>
